<?xml version="1.0" standalone="no"?>
<!DOCTYPE svg PUBLIC "-//W3C//DTD SVG 20010904//EN"
 "http://www.w3.org/TR/2001/REC-SVG-20010904/DTD/svg10.dtd">
<svg version="1.0" xmlns="http://www.w3.org/2000/svg"
 width="576.000000pt" height="576.000000pt" viewBox="0 0 576.000000 576.000000"
 preserveAspectRatio="xMidYMid meet">
<metadata>
Created by potrace 1.11, written by Peter Selinger 2001-2013
</metadata>
<g transform="translate(0.000000,576.000000) scale(0.100000,-0.100000)"
fill="#000000" stroke="none">
<path d="M2150 5123 c0 -4 -64 -9 -143 -9 -177 -2 -281 -12 -442 -44 -27 -6
-60 -12 -73 -15 -13 -2 -32 -7 -42 -10 -10 -3 -27 -8 -37 -10 -10 -2 -33 -8
-51 -14 -18 -5 -34 -10 -37 -11 -36 -7 -192 -63 -270 -98 -492 -217 -850 -576
-989 -993 -43 -129 -59 -226 -62 -375 -6 -354 118 -660 388 -955 l47 -52 -27
-51 c-14 -28 -37 -69 -51 -91 -39 -62 -50 -79 -57 -95 -4 -8 -10 -17 -14 -20
-3 -3 -28 -36 -55 -75 -27 -38 -55 -76 -62 -83 -7 -8 -26 -30 -41 -50 -15 -20
-40 -52 -57 -70 -54 -59 -74 -110 -71 -178 5 -122 91 -213 206 -220 25 -2 47
-4 50 -5 3 -1 8 -1 13 0 4 1 44 3 90 6 109 7 167 13 197 20 14 3 43 8 64 10
21 3 42 8 46 10 4 2 20 7 36 9 58 11 74 15 82 20 5 3 19 7 33 9 121 22 447
167 607 270 51 33 58 34 132 19 30 -6 72 -14 93 -17 119 -17 118 -17 149 -75
13 -25 78 -121 88 -130 3 -3 25 -30 50 -60 179 -218 462 -418 770 -545 36 -14
70 -27 75 -28 6 -2 15 -5 20 -9 6 -3 26 -9 45 -13 19 -4 40 -11 45 -15 6 -4
66 -22 135 -38 122 -30 145 -35 224 -47 21 -4 47 -8 57 -10 131 -25 600 -26
726 -1 11 3 43 8 70 11 26 4 65 11 85 16 51 13 108 14 116 3 19 -26 251 -149
392 -207 151 -62 371 -124 510 -143 30 -4 64 -9 75 -10 11 -2 81 -5 155 -8
126 -5 138 -4 185 18 52 24 111 86 122 128 26 106 11 161 -74 264 -140 170
-244 320 -320 460 l-33 61 33 34 c168 175 299 395 357 604 12 43 24 88 25 100
2 11 6 31 10 45 16 60 13 315 -5 415 -85 470 -424 875 -953 1137 -72 36 -281
118 -300 118 -7 0 -17 3 -21 8 -4 4 -11 7 -14 8 -4 0 -27 6 -52 13 -25 7 -53
15 -62 17 -10 2 -26 6 -35 8 -80 19 -122 28 -143 31 -14 2 -38 6 -55 9 -16 2
-49 7 -71 11 -32 5 -44 12 -54 33 -12 28 -86 139 -104 158 -6 6 -24 29 -41 50
-99 128 -345 335 -500 420 -233 127 -474 221 -670 259 -70 14 -81 16 -95 20
-8 2 -37 7 -65 11 -27 3 -59 8 -70 10 -25 5 -144 15 -211 18 -28 2 -56 6 -62
10 -7 4 -12 4 -12 -1z m190 -497 c14 -4 44 -9 67 -12 37 -4 78 -13 203 -40 14
-3 30 -7 35 -8 6 -1 15 -4 20 -8 6 -3 26 -9 45 -13 19 -4 49 -13 65 -20 17 -7
57 -23 90 -36 143 -54 307 -151 440 -259 91 -75 118 -105 233 -255 21 -27 83
-157 101 -211 31 -93 34 -119 34 -249 0 -121 -13 -196 -50 -281 -9 -21 -17
-44 -19 -49 -3 -18 -84 -147 -122 -195 -100 -128 -275 -268 -454 -364 -176
-94 -434 -177 -618 -200 -25 -3 -56 -8 -70 -11 -43 -10 -391 -13 -470 -3 -41
4 -93 10 -115 13 -32 4 -186 36 -290 60 -66 16 -71 15 -118 -15 -26 -16 -51
-30 -56 -30 -5 0 -14 -6 -20 -14 -14 -17 -172 -111 -258 -155 -60 -30 -207
-91 -219 -91 -4 0 2 12 12 28 23 34 200 384 209 411 5 16 -22 48 -142 168 -81
81 -160 162 -175 180 -85 100 -162 245 -193 363 -23 85 -27 254 -8 345 15 74
67 209 89 236 8 8 14 19 14 24 0 16 94 137 158 203 262 270 670 451 1102 489
36 3 66 7 68 8 6 5 387 -3 412 -9z m1965 -1048 c322 -96 611 -281 785 -503 17
-22 37 -48 45 -57 8 -10 12 -18 8 -18 -3 0 1 -8 10 -17 15 -18 64 -119 86
-178 42 -115 49 -313 16 -439 -22 -83 -95 -229 -155 -311 -24 -33 -115 -131
-202 -218 -87 -87 -158 -160 -158 -163 0 -6 161 -328 198 -396 18 -32 31 -58
29 -58 -9 0 -122 47 -184 76 -94 45 -168 88 -304 176 -78 50 -113 67 -130 64
-43 -9 -114 -24 -139 -31 -14 -3 -38 -9 -55 -12 -16 -3 -34 -6 -40 -8 -12 -2
-70 -13 -110 -20 -107 -19 -457 -26 -565 -11 -25 3 -61 8 -81 10 -45 6 -190
35 -199 41 -3 2 -17 6 -31 8 -75 14 -346 121 -401 159 -14 10 -29 18 -32 18
-5 0 -100 56 -121 72 -41 31 -194 159 -199 166 -3 6 20 13 51 17 32 4 64 8 73
10 8 1 35 6 60 10 48 8 51 8 120 26 25 6 55 13 68 15 12 2 73 21 135 41 643
207 1110 650 1241 1178 24 97 28 133 32 265 1 69 3 126 3 127 1 2 64 -15 146
-39z"/>
</g>
</svg>
